{
	"asset": {
		"generator": "Unity 2018.1.8f1",
		"extras": {
			"exporterVersion" : "2.2.1"
		},
		"version": "2.0"
	},
	"accessors": [
		{
			"bufferView": 2,
			"byteOffset": 0,
			"componentType": 5126,
			"count": 2353,
			"max": [ 0.01984027, 0.07298356, 0.018279 ],
			"min": [ -0.02047224, -0.0002723223, -0.01827242 ],
			"type": "VEC3"
		},
		{
			"bufferView": 2,
			"byteOffset": 28236,
			"componentType": 5126,
			"count": 2353,
			"max": [ 0.9994633, 0.995581, 0.9997912 ],
			"min": [ -0.9983473, -0.9993705, -0.9986872 ],
			"type": "VEC3"
		},
		{
			"bufferView": 1,
			"byteOffset": 0,
			"componentType": 5126,
			"count": 2353,
			"max": [ 0.9977271, 0.9742683 ],
			"min": [ 0.002884178, 0.002061196 ],
			"type": "VEC2"
		},
		{
			"bufferView": 3,
			"byteOffset": 0,
			"componentType": 5126,
			"count": 2353,
			"max": [ 1, 0.9986507, 0.9997661, 1 ],
			"min": [ -0.9994505, -0.9934169, -0.9961798, -1 ],
			"type": "VEC4"
		},
		{
			"bufferView": 0,
			"byteOffset": 0,
			"componentType": 5123,
			"count": 13134,
			"max": [ 2352 ],
			"min": [ 0 ],
			"type": "SCALAR"
		}
	],
	"buffers": [
		{
			"byteLength": 139212,
			"uri": "Pear.bin"
		}
	],
	"bufferViews": [
		{
			"buffer": 0,
			"byteLength": 26268,
			"target": 34963,
			"byteOffset": 112944
		},
		{
			"buffer": 0,
			"byteLength": 18824,
			"target": 34962,
			"byteStride": 8,
			"byteOffset": 0
		},
		{
			"buffer": 0,
			"byteLength": 56472,
			"target": 34962,
			"byteStride": 12,
			"byteOffset": 18824
		},
		{
			"buffer": 0,
			"byteLength": 37648,
			"target": 34962,
			"byteStride": 16,
			"byteOffset": 75296
		}
	],
	"extensionsRequired": [
		"KHR_materials_pbrSpecularGlossiness"
	],
	"extensionsUsed": [
		"KHR_materials_pbrSpecularGlossiness"
	],
	"images": [
		{
			"uri": "Assets/a/Pear/Pear_BaseColor&Albedo.jpg"
		},
		{
			"uri": "Assets/a/Pear/Pear_Specular.png"
		},
		{
			"uri": "Assets/a/Pear/Pear_Normal.jpg"
		},
		{
			"uri": "Assets/a/Pear/Pear_AmbientOcclusion.jpg"
		}
	],
	"materials": [
		{
			"extensions": {
				"KHR_materials_pbrSpecularGlossiness": {
					"diffuseTexture" : {
						"index" : 0,
						"texCoord" : 0
					},
					"diffuseFactor": [1, 1, 1, 1],
					"specularGlossinessTexture" : {
						"index" : 1,
						"texCoord" : 0
					},
					"specularFactor": [1, 1, 1],
					"glossinessFactor": 1				}

			},
			"normalTexture" : {
				"index" : 2,
				"texCoord" : 0,
				"scale" : 1
			},
			"emissiveFactor": [0, 0, 0],
			"occlusionTexture" : {
				"index" : 3,
				"texCoord" : 0,
				"strength" : 1
			},
			"doubleSided": false,
			"name": "New Material"
		}
	],
	"meshes": [
		{
			"name": "mesh_PearLOD1_16284Pear",
			"primitives": [
				{
					"attributes": {
						"POSITION": 0,
						"NORMAL": 1,
						"TEXCOORD_0": 2,
						"TANGENT": 3
					},
					"indices": 4,
					"material": 0,
					"mode": 4
				}
			]
		}
	],
	"nodes": [
		{
			"name": "UnityGlTF_root",
			"children": [
				1
			]
		},
		{
			"name": "node_Pear_-283486",
			"mesh": 0,
			"matrix": [1, 0, 0, 0, 0, 1, 0, 0, 0, 0, 1, 0, 0, 0, 0, 1]
		}
	],
	"samplers": [
		{
			"magFilter": 9729,
			"minFilter": 9985,
			"wrapS": 10497,
			"wrapT": 10497
		}
	],
	"scenes": [
		{
			"name":"defaultScene",
			"nodes": [
				0
			]
		}
	],
	"scene": 0,
	"textures": [
		{
			"sampler": 0,
			"source": 0
		},
		{
			"sampler": 0,
			"source": 1
		},
		{
			"sampler": 0,
			"source": 2
		},
		{
			"sampler": 0,
			"source": 3
		}
	]
}