{
	"asset": {
		"generator": "Unity 2018.1.8f1",
		"extras": {
			"exporterVersion" : "2.2.1"
		},
		"version": "2.0"
	},
	"accessors": [
		{
			"bufferView": 2,
			"byteOffset": 0,
			"componentType": 5126,
			"count": 1826,
			"max": [ 0.04128188639879227, 0.04643307253718376, 0.02171635 ],
			"min": [ -0.0412621833384037, -0.0011374320602044463, -0.02183726243674755 ],
			"type": "VEC3"
		},
		{
			"bufferView": 2,
			"byteOffset": 21912,
			"componentType": 5126,
			"count": 1826,
			"max": [ 0.994239330291748, 0.9996991, 0.9984146356582642 ],
			"min": [ -0.9997155, -0.9998504, -0.9996919631958008 ],
			"type": "VEC3"
		},
		{
			"bufferView": 1,
			"byteOffset": 0,
			"componentType": 5126,
			"count": 1826,
			"max": [ 0.8410365, 0.9980467557907104 ],
			"min": [ 0.0019583578687161207, 0.0023650196380913258 ],
			"type": "VEC2"
		},
		{
			"bufferView": 3,
			"byteOffset": 0,
			"componentType": 5126,
			"count": 1826,
			"max": [ 0.8935334, 0.9968909621238708, 0.9975216, 1 ],
			"min": [ -0.9999896, -0.9973050355911255, -0.9882729649543762, -1 ],
			"type": "VEC4"
		},
		{
			"bufferView": 0,
			"byteOffset": 0,
			"componentType": 5123,
			"count": 10548,
			"max": [ 1825 ],
			"min": [ 0 ],
			"type": "SCALAR"
		}
	],
	"buffers": [
		{
			"byteLength": 108744,
			"uri": "Potato.bin"
		}
	],
	"bufferViews": [
		{
			"buffer": 0,
			"byteLength": 21096,
			"target": 34963,
			"byteOffset": 87648
		},
		{
			"buffer": 0,
			"byteLength": 14608,
			"target": 34962,
			"byteStride": 8,
			"byteOffset": 0
		},
		{
			"buffer": 0,
			"byteLength": 43824,
			"target": 34962,
			"byteStride": 12,
			"byteOffset": 14608
		},
		{
			"buffer": 0,
			"byteLength": 29216,
			"target": 34962,
			"byteStride": 16,
			"byteOffset": 58432
		}
	],
	"extensionsRequired": [
		"KHR_materials_pbrSpecularGlossiness"
	],
	"extensionsUsed": [
		"KHR_materials_pbrSpecularGlossiness"
	],
	"images": [
		{
			"uri": "Assets/a/Potato/Potato_BaseColor&Albedo.jpg"
		},
		{
			"uri": "Assets/a/Potato/Potato_Specular.png"
		},
		{
			"uri": "Assets/a/Potato/Potato_Normal.jpg"
		},
		{
			"uri": "Assets/a/Potato/Potato_AmbientOcclusion.jpg"
		}
	],
	"materials": [
		{
			"extensions": {
				"KHR_materials_pbrSpecularGlossiness": {
					"diffuseTexture" : {
						"index" : 0,
						"texCoord" : 0
					},
					"diffuseFactor": [1, 1, 1, 1],
					"specularGlossinessTexture" : {
						"index" : 1,
						"texCoord" : 0
					},
					"specularFactor": [1, 1, 1],
					"glossinessFactor": 0.8				}

			},
			"normalTexture" : {
				"index" : 2,
				"texCoord" : 0,
				"scale" : 1
			},
			"emissiveFactor": [0, 0, 0],
			"occlusionTexture" : {
				"index" : 3,
				"texCoord" : 0,
				"strength" : 1
			},
			"doubleSided": false,
			"name": "New Material"
		}
	],
	"meshes": [
		{
			"name": "mesh_PotatoLOD1_16158Potato",
			"primitives": [
				{
					"attributes": {
						"POSITION": 0,
						"NORMAL": 1,
						"TEXCOORD_0": 2,
						"TANGENT": 3
					},
					"indices": 4,
					"material": 0,
					"mode": 4
				}
			]
		}
	],
	"nodes": [
		{
			"name": "UnityGlTF_root",
			"children": [
				1
			]
		},
		{
			"name": "node_Potato_-305050",
			"mesh": 0,
			"matrix": [1, 0, 0, 0, 0, 1, 0, 0, 0, 0, 1, 0, 0, 0, 0, 1]
		}
	],
	"samplers": [
		{
			"magFilter": 9729,
			"minFilter": 9985,
			"wrapS": 10497,
			"wrapT": 10497
		}
	],
	"scenes": [
		{
			"name":"defaultScene",
			"nodes": [
				0
			]
		}
	],
	"scene": 0,
	"textures": [
		{
			"sampler": 0,
			"source": 0
		},
		{
			"sampler": 0,
			"source": 1
		},
		{
			"sampler": 0,
			"source": 2
		},
		{
			"sampler": 0,
			"source": 3
		}
	]
}