{
	"asset": {
		"generator": "Unity 2018.1.8f1",
		"extras": {
			"exporterVersion" : "2.2.1"
		},
		"version": "2.0"
	},
	"accessors": [
		{
			"bufferView": 2,
			"byteOffset": 0,
			"componentType": 5126,
			"count": 3173,
			"max": [ 0.02138925, 0.05026031, 0.02109401 ],
			"min": [ -0.0214697, -0.001147768, -0.02105226 ],
			"type": "VEC3"
		},
		{
			"bufferView": 2,
			"byteOffset": 38076,
			"componentType": 5126,
			"count": 3173,
			"max": [ 0.9996173, 0.9998468, 0.9994178 ],
			"min": [ -0.9993649, -0.9996305, -0.999648 ],
			"type": "VEC3"
		},
		{
			"bufferView": 1,
			"byteOffset": 0,
			"componentType": 5126,
			"count": 3173,
			"max": [ 0.9980468, 0.9872518 ],
			"min": [ 0.002222019, 0.001953117 ],
			"type": "VEC2"
		},
		{
			"bufferView": 3,
			"byteOffset": 0,
			"componentType": 5126,
			"count": 3173,
			"max": [ 0.9994337, 0.9959999, 0.9997846, 1 ],
			"min": [ -0.9997174, -0.9976692, -0.9990296, -1 ],
			"type": "VEC4"
		},
		{
			"bufferView": 0,
			"byteOffset": 0,
			"componentType": 5123,
			"count": 18120,
			"max": [ 3172 ],
			"min": [ 0 ],
			"type": "SCALAR"
		}
	],
	"buffers": [
		{
			"byteLength": 188544,
			"uri": "apple01.bin"
		}
	],
	"bufferViews": [
		{
			"buffer": 0,
			"byteLength": 36240,
			"target": 34963,
			"byteOffset": 152304
		},
		{
			"buffer": 0,
			"byteLength": 25384,
			"target": 34962,
			"byteStride": 8,
			"byteOffset": 0
		},
		{
			"buffer": 0,
			"byteLength": 76152,
			"target": 34962,
			"byteStride": 12,
			"byteOffset": 25384
		},
		{
			"buffer": 0,
			"byteLength": 50768,
			"target": 34962,
			"byteStride": 16,
			"byteOffset": 101536
		}
	],
	"extensionsRequired": [
		"KHR_materials_pbrSpecularGlossiness"
	],
	"extensionsUsed": [
		"KHR_materials_pbrSpecularGlossiness"
	],
	"images": [
		{
			"uri": "Assets/a/Apple2/Apple2_BaseColor&Albedo.jpg"
		},
		{
			"uri": "Assets/a/Apple2/Apple2_Specular.png"
		},
		{
			"uri": "Assets/a/Apple2/Apple2_Normal.jpg"
		},
		{
			"uri": "Assets/a/Apple2/Apple2_AmbientOcclusion.jpg"
		}
	],
	"materials": [
		{
			"extensions": {
				"KHR_materials_pbrSpecularGlossiness": {
					"diffuseTexture" : {
						"index" : 0,
						"texCoord" : 0
					},
					"diffuseFactor": [1, 1, 1, 1],
					"specularGlossinessTexture" : {
						"index" : 1,
						"texCoord" : 0
					},
					"specularFactor": [1, 1, 1],
					"glossinessFactor": 1				}

			},
			"normalTexture" : {
				"index" : 2,
				"texCoord" : 0,
				"scale" : 1
			},
			"emissiveFactor": [0, 0, 0],
			"occlusionTexture" : {
				"index" : 3,
				"texCoord" : 0,
				"strength" : 1
			},
			"doubleSided": false,
			"name": "New Material"
		}
	],
	"meshes": [
		{
			"name": "mesh_Apple2_16308Apple2",
			"primitives": [
				{
					"attributes": {
						"POSITION": 0,
						"NORMAL": 1,
						"TEXCOORD_0": 2,
						"TANGENT": 3
					},
					"indices": 4,
					"material": 0,
					"mode": 4
				}
			]
		}
	],
	"nodes": [
		{
			"name": "UnityGlTF_root",
			"children": [
				1
			]
		},
		{
			"name": "node_Apple2_-101264",
			"mesh": 0,
			"matrix": [1, 0, 0, 0, 0, 1, 0, 0, 0, 0, 1, 0, 0, 0, 0, 1]
		}
	],
	"samplers": [
		{
			"magFilter": 9729,
			"minFilter": 9985,
			"wrapS": 10497,
			"wrapT": 10497
		}
	],
	"scenes": [
		{
			"name":"defaultScene",
			"nodes": [
				0
			]
		}
	],
	"scene": 0,
	"textures": [
		{
			"sampler": 0,
			"source": 0
		},
		{
			"sampler": 0,
			"source": 1
		},
		{
			"sampler": 0,
			"source": 2
		},
		{
			"sampler": 0,
			"source": 3
		}
	]
}