{
	"asset": {
		"generator": "Unity 2018.1.8f1",
		"extras": {
			"exporterVersion" : "2.2.1"
		},
		"version": "2.0"
	},
	"accessors": [
		{
			"bufferView": 2,
			"byteOffset": 0,
			"componentType": 5126,
			"count": 2402,
			"max": [ 0.03300049, 0.03697230666875839, 0.0260359775274992 ],
			"min": [ -0.03314097225666046, -0.0005247373483143747, -0.02611452341079712 ],
			"type": "VEC3"
		},
		{
			"bufferView": 2,
			"byteOffset": 28824,
			"componentType": 5126,
			"count": 2402,
			"max": [ 0.9995902, 0.9998383522033691, 0.9985856 ],
			"min": [ -0.9967554, -0.9998172, -0.9999202489852905 ],
			"type": "VEC3"
		},
		{
			"bufferView": 1,
			"byteOffset": 0,
			"componentType": 5126,
			"count": 2402,
			"max": [ 0.8948861, 0.9980467557907104 ],
			"min": [ 0.0019531291909515858, 0.0019531291909515858 ],
			"type": "VEC2"
		},
		{
			"bufferView": 3,
			"byteOffset": 0,
			"componentType": 5126,
			"count": 2402,
			"max": [ 1, 0.9754733, 0.9934762, 1 ],
			"min": [ -0.998901, -0.9991457462310791, -0.9993146657943726, -1 ],
			"type": "VEC4"
		},
		{
			"bufferView": 0,
			"byteOffset": 0,
			"componentType": 5123,
			"count": 11202,
			"max": [ 2401 ],
			"min": [ 0 ],
			"type": "SCALAR"
		}
	],
	"buffers": [
		{
			"byteLength": 137700,
			"uri": "Potato2.bin"
		}
	],
	"bufferViews": [
		{
			"buffer": 0,
			"byteLength": 22404,
			"target": 34963,
			"byteOffset": 115296
		},
		{
			"buffer": 0,
			"byteLength": 19216,
			"target": 34962,
			"byteStride": 8,
			"byteOffset": 0
		},
		{
			"buffer": 0,
			"byteLength": 57648,
			"target": 34962,
			"byteStride": 12,
			"byteOffset": 19216
		},
		{
			"buffer": 0,
			"byteLength": 38432,
			"target": 34962,
			"byteStride": 16,
			"byteOffset": 76864
		}
	],
	"extensionsRequired": [
		"KHR_materials_pbrSpecularGlossiness"
	],
	"extensionsUsed": [
		"KHR_materials_pbrSpecularGlossiness"
	],
	"images": [
		{
			"uri": "Assets/a/Potato2/Potato2_BaseColor&Albedo.jpg"
		},
		{
			"uri": "Assets/a/Potato2/Potato2_Specular.png"
		},
		{
			"uri": "Assets/a/Potato2/Potato2_Normal.jpg"
		},
		{
			"uri": "Assets/a/Potato2/Potato2_AmbientOcclusion.jpg"
		}
	],
	"materials": [
		{
			"extensions": {
				"KHR_materials_pbrSpecularGlossiness": {
					"diffuseTexture" : {
						"index" : 0,
						"texCoord" : 0
					},
					"diffuseFactor": [1, 1, 1, 1],
					"specularGlossinessTexture" : {
						"index" : 1,
						"texCoord" : 0
					},
					"specularFactor": [1, 1, 1],
					"glossinessFactor": 0.8				}

			},
			"normalTexture" : {
				"index" : 2,
				"texCoord" : 0,
				"scale" : 1
			},
			"emissiveFactor": [0, 0, 0],
			"occlusionTexture" : {
				"index" : 3,
				"texCoord" : 0,
				"strength" : 1
			},
			"doubleSided": false,
			"name": "New Material"
		}
	],
	"meshes": [
		{
			"name": "mesh_Potato2LOD1_16344Potato2",
			"primitives": [
				{
					"attributes": {
						"POSITION": 0,
						"NORMAL": 1,
						"TEXCOORD_0": 2,
						"TANGENT": 3
					},
					"indices": 4,
					"material": 0,
					"mode": 4
				}
			]
		}
	],
	"nodes": [
		{
			"name": "UnityGlTF_root",
			"children": [
				1
			]
		},
		{
			"name": "node_Potato2_-323184",
			"mesh": 0,
			"matrix": [1, 0, 0, 0, 0, 1, 0, 0, 0, 0, 1, 0, 0, 0, 0, 1]
		}
	],
	"samplers": [
		{
			"magFilter": 9729,
			"minFilter": 9985,
			"wrapS": 10497,
			"wrapT": 10497
		}
	],
	"scenes": [
		{
			"name":"defaultScene",
			"nodes": [
				0
			]
		}
	],
	"scene": 0,
	"textures": [
		{
			"sampler": 0,
			"source": 0
		},
		{
			"sampler": 0,
			"source": 1
		},
		{
			"sampler": 0,
			"source": 2
		},
		{
			"sampler": 0,
			"source": 3
		}
	]
}