{
	"asset": {
		"generator": "Unity 2018.1.8f1",
		"extras": {
			"exporterVersion" : "2.2.1"
		},
		"version": "2.0"
	},
	"accessors": [
		{
			"bufferView": 2,
			"byteOffset": 0,
			"componentType": 5126,
			"count": 2574,
			"max": [ 0.04798423, 0.0331844, 0.02749874 ],
			"min": [ -0.04688868, -0.0006804392, -0.02749874 ],
			"type": "VEC3"
		},
		{
			"bufferView": 2,
			"byteOffset": 30888,
			"componentType": 5126,
			"count": 2574,
			"max": [ 0.9989925, 0.9997136, 0.9997502 ],
			"min": [ -0.9981451, -0.9994776, -0.9996341 ],
			"type": "VEC3"
		},
		{
			"bufferView": 1,
			"byteOffset": 0,
			"componentType": 5126,
			"count": 2574,
			"max": [ 0.9826071, 0.9968635 ],
			"min": [ 0.003073469, 0.002402743 ],
			"type": "VEC2"
		},
		{
			"bufferView": 3,
			"byteOffset": 0,
			"componentType": 5126,
			"count": 2574,
			"max": [ 0.9148299, 0.9981358, 0.9957267, 1 ],
			"min": [ -0.9997053, -0.9982234, -0.9981963, -1 ],
			"type": "VEC4"
		},
		{
			"bufferView": 0,
			"byteOffset": 0,
			"componentType": 5123,
			"count": 14556,
			"max": [ 2573 ],
			"min": [ 0 ],
			"type": "SCALAR"
		}
	],
	"buffers": [
		{
			"byteLength": 152664,
			"uri": "Ginger.bin"
		}
	],
	"bufferViews": [
		{
			"buffer": 0,
			"byteLength": 29112,
			"target": 34963,
			"byteOffset": 123552
		},
		{
			"buffer": 0,
			"byteLength": 20592,
			"target": 34962,
			"byteStride": 8,
			"byteOffset": 0
		},
		{
			"buffer": 0,
			"byteLength": 61776,
			"target": 34962,
			"byteStride": 12,
			"byteOffset": 20592
		},
		{
			"buffer": 0,
			"byteLength": 41184,
			"target": 34962,
			"byteStride": 16,
			"byteOffset": 82368
		}
	],
	"extensionsRequired": [
		"KHR_materials_pbrSpecularGlossiness"
	],
	"extensionsUsed": [
		"KHR_materials_pbrSpecularGlossiness"
	],
	"images": [
		{
			"uri": "Assets/a/Ginger/Ginger_BaseColor&Albedo.jpg"
		},
		{
			"uri": "Assets/a/Ginger/Ginger_Specular.png"
		},
		{
			"uri": "Assets/a/Ginger/Ginger_Normal.jpg"
		},
		{
			"uri": "Assets/a/Ginger/Ginger_AmbientOcclusion.jpg"
		}
	],
	"materials": [
		{
			"extensions": {
				"KHR_materials_pbrSpecularGlossiness": {
					"diffuseTexture" : {
						"index" : 0,
						"texCoord" : 0
					},
					"diffuseFactor": [1, 1, 1, 1],
					"specularGlossinessTexture" : {
						"index" : 1,
						"texCoord" : 0
					},
					"specularFactor": [1, 1, 1],
					"glossinessFactor": 1				}

			},
			"normalTexture" : {
				"index" : 2,
				"texCoord" : 0,
				"scale" : 1
			},
			"emissiveFactor": [0, 0, 0],
			"occlusionTexture" : {
				"index" : 3,
				"texCoord" : 0,
				"strength" : 1
			},
			"doubleSided": false,
			"name": "New Material"
		}
	],
	"meshes": [
		{
			"name": "mesh_GingerLOD1_16210Ginger",
			"primitives": [
				{
					"attributes": {
						"POSITION": 0,
						"NORMAL": 1,
						"TEXCOORD_0": 2,
						"TANGENT": 3
					},
					"indices": 4,
					"material": 0,
					"mode": 4
				}
			]
		}
	],
	"nodes": [
		{
			"name": "UnityGlTF_root",
			"children": [
				1
			]
		},
		{
			"name": "node_Ginger_-182764",
			"mesh": 0,
			"matrix": [1, 0, 0, 0, 0, 1, 0, 0, 0, 0, 1, 0, 0, 0, 0, 1]
		}
	],
	"samplers": [
		{
			"magFilter": 9729,
			"minFilter": 9985,
			"wrapS": 10497,
			"wrapT": 10497
		}
	],
	"scenes": [
		{
			"name":"defaultScene",
			"nodes": [
				0
			]
		}
	],
	"scene": 0,
	"textures": [
		{
			"sampler": 0,
			"source": 0
		},
		{
			"sampler": 0,
			"source": 1
		},
		{
			"sampler": 0,
			"source": 2
		},
		{
			"sampler": 0,
			"source": 3
		}
	]
}