{
	"asset": {
		"generator": "Unity 2018.1.8f1",
		"extras": {
			"exporterVersion" : "2.2.1"
		},
		"version": "2.0"
	},
	"accessors": [
		{
			"bufferView": 2,
			"byteOffset": 0,
			"componentType": 5126,
			"count": 1619,
			"max": [ 0.017901096493005753, 0.03621937707066536, 0.01741090789437294 ],
			"min": [ -0.017901096493005753, -0.00002275466795254033, -0.01741090789437294 ],
			"type": "VEC3"
		},
		{
			"bufferView": 2,
			"byteOffset": 19428,
			"componentType": 5126,
			"count": 1619,
			"max": [ 0.9996204376220703, 0.9971265, 0.9996014 ],
			"min": [ -0.9999786615371704, -0.9991316, -0.9986766 ],
			"type": "VEC3"
		},
		{
			"bufferView": 3,
			"byteOffset": 0,
			"componentType": 5126,
			"count": 1619,
			"max": [ 1, 1, 1, 1 ],
			"min": [ 1, 1, 1, 1 ],
			"type": "VEC4"
		},
		{
			"bufferView": 1,
			"byteOffset": 0,
			"componentType": 5126,
			"count": 1619,
			"max": [ 0.9995925, 0.9969447 ],
			"min": [ 7.85E-05, 1.525E-05 ],
			"type": "VEC2"
		},
		{
			"bufferView": 3,
			"byteOffset": 25904,
			"componentType": 5126,
			"count": 1619,
			"max": [ 0.9993173, 0.9962404, 0.9918660521507263, 1 ],
			"min": [ -0.9968797, -0.7411681, -0.999401330947876, -1 ],
			"type": "VEC4"
		},
		{
			"bufferView": 0,
			"byteOffset": 0,
			"componentType": 5123,
			"count": 9372,
			"max": [ 1618 ],
			"min": [ 0 ],
			"type": "SCALAR"
		}
	],
	"buffers": [
		{
			"byteLength": 122360,
			"uri": "Peach.bin"
		}
	],
	"bufferViews": [
		{
			"buffer": 0,
			"byteLength": 18744,
			"target": 34963,
			"byteOffset": 103616
		},
		{
			"buffer": 0,
			"byteLength": 12952,
			"target": 34962,
			"byteStride": 8,
			"byteOffset": 0
		},
		{
			"buffer": 0,
			"byteLength": 38856,
			"target": 34962,
			"byteStride": 12,
			"byteOffset": 12952
		},
		{
			"buffer": 0,
			"byteLength": 51808,
			"target": 34962,
			"byteStride": 16,
			"byteOffset": 51808
		}
	],
	"extensionsRequired": [
		"KHR_materials_pbrSpecularGlossiness"
	],
	"extensionsUsed": [
		"KHR_materials_pbrSpecularGlossiness"
	],
	"images": [
		{
			"uri": "Assets/a/Peach/Peach_BaseColor&Albedo.jpg"
		},
		{
			"uri": "Assets/a/Peach/Peach_Specular.png"
		},
		{
			"uri": "Assets/a/Peach/Peach_Normal.jpg"
		},
		{
			"uri": "Assets/a/Peach/Peach_AmbientOcclusion.jpg"
		}
	],
	"materials": [
		{
			"extensions": {
				"KHR_materials_pbrSpecularGlossiness": {
					"diffuseTexture" : {
						"index" : 0,
						"texCoord" : 0
					},
					"diffuseFactor": [1, 1, 1, 1],
					"specularGlossinessTexture" : {
						"index" : 1,
						"texCoord" : 0
					},
					"specularFactor": [1, 1, 1],
					"glossinessFactor": 0.4				}

			},
			"normalTexture" : {
				"index" : 2,
				"texCoord" : 0,
				"scale" : 1
			},
			"emissiveFactor": [0, 0, 0],
			"occlusionTexture" : {
				"index" : 3,
				"texCoord" : 0,
				"strength" : 1
			},
			"doubleSided": false,
			"name": "New Material"
		}
	],
	"meshes": [
		{
			"name": "mesh_PeachLOD1_16130Peach",
			"primitives": [
				{
					"attributes": {
						"POSITION": 0,
						"NORMAL": 1,
						"COLOR_0": 2,
						"TEXCOORD_0": 3,
						"TANGENT": 4
					},
					"indices": 5,
					"material": 0,
					"mode": 4
				}
			]
		}
	],
	"nodes": [
		{
			"name": "UnityGlTF_root",
			"children": [
				1
			]
		},
		{
			"name": "node_Peach_-265386",
			"mesh": 0,
			"matrix": [1, 0, 0, 0, 0, 1, 0, 0, 0, 0, 1, 0, 0, 0, 0, 1]
		}
	],
	"samplers": [
		{
			"magFilter": 9729,
			"minFilter": 9985,
			"wrapS": 10497,
			"wrapT": 10497
		}
	],
	"scenes": [
		{
			"name":"defaultScene",
			"nodes": [
				0
			]
		}
	],
	"scene": 0,
	"textures": [
		{
			"sampler": 0,
			"source": 0
		},
		{
			"sampler": 0,
			"source": 1
		},
		{
			"sampler": 0,
			"source": 2
		},
		{
			"sampler": 0,
			"source": 3
		}
	]
}