{
	"asset": {
		"generator": "Unity 2018.1.8f1",
		"extras": {
			"exporterVersion" : "2.2.1"
		},
		"version": "2.0"
	},
	"accessors": [
		{
			"bufferView": 2,
			"byteOffset": 0,
			"componentType": 5126,
			"count": 1283,
			"max": [ 0.02123908, 0.01653379574418068, 0.01814672164618969 ],
			"min": [ -0.02123908, -0.01653379574418068, -0.01814672164618969 ],
			"type": "VEC3"
		},
		{
			"bufferView": 2,
			"byteOffset": 15396,
			"componentType": 5126,
			"count": 1283,
			"max": [ 0.9986326, 0.9986977577209473, 0.9993431 ],
			"min": [ -0.9997725, -0.9983521699905396, -0.9994579 ],
			"type": "VEC3"
		},
		{
			"bufferView": 3,
			"byteOffset": 0,
			"componentType": 5126,
			"count": 1283,
			"max": [ 1, 1, 1, 1 ],
			"min": [ 1, 1, 1, 1 ],
			"type": "VEC4"
		},
		{
			"bufferView": 1,
			"byteOffset": 0,
			"componentType": 5126,
			"count": 1283,
			"max": [ 0.996665, 0.9684765 ],
			"min": [ 0.0019531294237822294, 0.0019531291909515858 ],
			"type": "VEC2"
		},
		{
			"bufferView": 3,
			"byteOffset": 20528,
			"componentType": 5126,
			"count": 1283,
			"max": [ 0.8090371, 0.9998017, 0.9979446530342102, 1 ],
			"min": [ -0.9036802649497986, -0.9987047, -0.9937575, -1 ],
			"type": "VEC4"
		},
		{
			"bufferView": 0,
			"byteOffset": 0,
			"componentType": 5123,
			"count": 7452,
			"max": [ 1282 ],
			"min": [ 0 ],
			"type": "SCALAR"
		}
	],
	"buffers": [
		{
			"byteLength": 97016,
			"uri": "Kiwi.bin"
		}
	],
	"bufferViews": [
		{
			"buffer": 0,
			"byteLength": 14904,
			"target": 34963,
			"byteOffset": 82112
		},
		{
			"buffer": 0,
			"byteLength": 10264,
			"target": 34962,
			"byteStride": 8,
			"byteOffset": 0
		},
		{
			"buffer": 0,
			"byteLength": 30792,
			"target": 34962,
			"byteStride": 12,
			"byteOffset": 10264
		},
		{
			"buffer": 0,
			"byteLength": 41056,
			"target": 34962,
			"byteStride": 16,
			"byteOffset": 41056
		}
	],
	"extensionsRequired": [
		"KHR_materials_pbrSpecularGlossiness"
	],
	"extensionsUsed": [
		"KHR_materials_pbrSpecularGlossiness"
	],
	"images": [
		{
			"uri": "Assets/a/Kiwi/Kiwi_BaseColor&Albedo.jpg"
		},
		{
			"uri": "Assets/a/Kiwi/Kiwi_Specular.png"
		},
		{
			"uri": "Assets/a/Kiwi/Kiwi_Normal.jpg"
		},
		{
			"uri": "Assets/a/Kiwi/Kiwi_AmbientOcclusion.jpg"
		}
	],
	"materials": [
		{
			"extensions": {
				"KHR_materials_pbrSpecularGlossiness": {
					"diffuseTexture" : {
						"index" : 0,
						"texCoord" : 0
					},
					"diffuseFactor": [1, 1, 1, 1],
					"specularGlossinessTexture" : {
						"index" : 1,
						"texCoord" : 0
					},
					"specularFactor": [1, 1, 1],
					"glossinessFactor": 0.8				}

			},
			"normalTexture" : {
				"index" : 2,
				"texCoord" : 0,
				"scale" : 1
			},
			"emissiveFactor": [0, 0, 0],
			"occlusionTexture" : {
				"index" : 3,
				"texCoord" : 0,
				"strength" : 1
			},
			"doubleSided": false,
			"name": "New Material"
		}
	],
	"meshes": [
		{
			"name": "mesh_KiwiLOD1_16260Kiwi",
			"primitives": [
				{
					"attributes": {
						"POSITION": 0,
						"NORMAL": 1,
						"COLOR_0": 2,
						"TEXCOORD_0": 3,
						"TANGENT": 4
					},
					"indices": 5,
					"material": 0,
					"mode": 4
				}
			]
		}
	],
	"nodes": [
		{
			"name": "UnityGlTF_root",
			"children": [
				1
			]
		},
		{
			"name": "node_Kiwi_-207228",
			"mesh": 0,
			"matrix": [1, 0, 0, 0, 0, 1, 0, 0, 0, 0, 1, 0, 0, 0.0165338, 8.92669E-05, 1]
		}
	],
	"samplers": [
		{
			"magFilter": 9729,
			"minFilter": 9985,
			"wrapS": 10497,
			"wrapT": 10497
		}
	],
	"scenes": [
		{
			"name":"defaultScene",
			"nodes": [
				0
			]
		}
	],
	"scene": 0,
	"textures": [
		{
			"sampler": 0,
			"source": 0
		},
		{
			"sampler": 0,
			"source": 1
		},
		{
			"sampler": 0,
			"source": 2
		},
		{
			"sampler": 0,
			"source": 3
		}
	]
}