{
	"asset": {
		"generator": "Unity 2018.1.8f1",
		"extras": {
			"exporterVersion" : "2.2.1"
		},
		"version": "2.0"
	},
	"accessors": [
		{
			"bufferView": 2,
			"byteOffset": 0,
			"componentType": 5126,
			"count": 2350,
			"max": [ 0.021240662783384323,0.034608691930770874, 0.016420502215623856 ],
			"min": [ -0.021240662783384323, 0.000221934518776834, -0.016420502215623856 ],
			"type": "VEC3"
		},
		{
			"bufferView": 2,
			"byteOffset": 28200,
			"componentType": 5126,
			"count": 2350,
			"max": [ 0.9995246, 0.9972983, 0.998654842376709 ],
			"min": [ -0.9995309, -0.9971152544021606, -0.9999467 ],
			"type": "VEC3"
		},
		{
			"bufferView": 1,
			"byteOffset": 0,
			"componentType": 5126,
			"count": 2350,
			"max": [ 0.990136, 0.9973700642585754 ],
			"min": [ 0.008687925, 0.0022972901351749897 ],
			"type": "VEC2"
		},
		{
			"bufferView": 3,
			"byteOffset": 0,
			"componentType": 5126,
			"count": 2350,
			"max": [ 1, 0.9997287392616272, 0.9952017, 1 ],
			"min": [ -0.9999683, -0.9967047572135925, -0.999079, -1 ],
			"type": "VEC4"
		},
		{
			"bufferView": 0,
			"byteOffset": 0,
			"componentType": 5123,
			"count": 12834,
			"max": [ 2349 ],
			"min": [ 0 ],
			"type": "SCALAR"
		}
	],
	"buffers": [
		{
			"byteLength": 138468,
			"uri": "Onion.bin"
		}
	],
	"bufferViews": [
		{
			"buffer": 0,
			"byteLength": 25668,
			"target": 34963,
			"byteOffset": 112800
		},
		{
			"buffer": 0,
			"byteLength": 18800,
			"target": 34962,
			"byteStride": 8,
			"byteOffset": 0
		},
		{
			"buffer": 0,
			"byteLength": 56400,
			"target": 34962,
			"byteStride": 12,
			"byteOffset": 18800
		},
		{
			"buffer": 0,
			"byteLength": 37600,
			"target": 34962,
			"byteStride": 16,
			"byteOffset": 75200
		}
	],
	"extensionsRequired": [
		"KHR_materials_pbrSpecularGlossiness"
	],
	"extensionsUsed": [
		"KHR_materials_pbrSpecularGlossiness"
	],
	"images": [
		{
			"uri": "Assets/a/Onion/Onion_BaseColor&Albedo.jpg"
		},
		{
			"uri": "Assets/a/Onion/Onion_Specular.png"
		},
		{
			"uri": "Assets/a/Onion/Onion_Normal.jpg"
		}
	],
	"materials": [
		{
			"extensions": {
				"KHR_materials_pbrSpecularGlossiness": {
					"diffuseTexture" : {
						"index" : 0,
						"texCoord" : 0
					},
					"diffuseFactor": [1, 1, 1, 1],
					"specularGlossinessTexture" : {
						"index" : 1,
						"texCoord" : 0
					},
					"specularFactor": [1, 1, 1],
					"glossinessFactor": 0.8			}

			},
			"normalTexture" : {
				"index" : 2,
				"texCoord" : 0,
				"scale" : 1
			},
			"emissiveFactor": [0, 0, 0],
			"doubleSided": false,
			"name": "New Material"
		}
	],
	"meshes": [
		{
			"name": "mesh_OnionLOD1_16106Onion",
			"primitives": [
				{
					"attributes": {
						"POSITION": 0,
						"NORMAL": 1,
						"TEXCOORD_0": 2,
						"TANGENT": 3
					},
					"indices": 4,
					"material": 0,
					"mode": 4
				}
			]
		}
	],
	"nodes": [
		{
			"name": "UnityGlTF_root",
			"children": [
				1
			]
		},
		{
			"name": "node_Onion_-245882",
			"mesh": 0,
			"matrix": [1.044106, 0, 0, 0, 0, 1.044106, 0, 0, 0, 0, 1.044106, 0, 0.0001153254, 0, -2.486702E-05, 1]
		}
	],
	"samplers": [
		{
			"magFilter": 9729,
			"minFilter": 9985,
			"wrapS": 10497,
			"wrapT": 10497
		}
	],
	"scenes": [
		{
			"name":"defaultScene",
			"nodes": [
				0
			]
		}
	],
	"scene": 0,
	"textures": [
		{
			"sampler": 0,
			"source": 0
		},
		{
			"sampler": 0,
			"source": 1
		},
		{
			"sampler": 0,
			"source": 2
		}
	]
}